<?xml version="1.0" standalone="no"?>
<!DOCTYPE svg PUBLIC "-//W3C//DTD SVG 20010904//EN"
 "http://www.w3.org/TR/2001/REC-SVG-20010904/DTD/svg10.dtd">
<svg version="1.0" xmlns="http://www.w3.org/2000/svg"
 width="700.000000pt" height="700.000000pt" viewBox="0 0 700.000000 700.000000"
 preserveAspectRatio="xMidYMid meet">
<metadata>
Created by potrace 1.14, written by Peter Selinger 2001-2017
</metadata>
<g transform="translate(0.000000,700.000000) scale(0.100000,-0.100000)"
fill="#000000" stroke="none">
<path d="M4605 6409 c-122 -28 -219 -138 -228 -261 -10 -127 77 -261 196 -301
20 -6 182 -11 427 -13 217 -1 400 -3 406 -3 6 -1 -993 -1003 -2218 -2228
-1226 -1226 -2242 -2246 -2257 -2268 -137 -193 2 -460 239 -458 46 0 80 7 115
23 42 19 423 396 2292 2264 1233 1232 2246 2242 2250 2243 4 2 7 -171 7 -384
-1 -423 2 -452 55 -525 144 -196 446 -144 513 87 12 42 15 176 14 830 l-1 780
-28 57 c-32 64 -80 111 -146 142 -45 21 -55 21 -826 22 -429 0 -793 -3 -810
-7z"/>
<path d="M1107 6118 c-170 -37 -268 -210 -214 -379 l20 -64 771 -771 c852
-852 811 -816 941 -817 164 -1 287 122 288 288 0 129 35 89 -807 932 -497 498
-774 769 -801 782 -67 33 -134 43 -198 29z"/>
<path d="M4298 2905 c-127 -34 -209 -143 -210 -280 -1 -130 -27 -99 686 -812
353 -354 637 -643 632 -644 -6 0 -186 -2 -401 -3 -214 -1 -403 -6 -420 -11
-54 -15 -125 -69 -160 -120 -57 -86 -64 -186 -21 -281 39 -85 110 -142 201
-162 22 -5 389 -8 815 -8 l775 1 57 28 c64 32 111 80 142 146 21 46 21 54 20
846 l0 800 -22 47 c-115 243 -471 219 -544 -37 -12 -40 -15 -128 -14 -437 1
-214 -2 -387 -7 -385 -4 1 -294 288 -645 638 -505 504 -647 640 -685 658 -58
26 -135 32 -199 16z"/>
</g>
</svg>
